<svg width="68" height="80" viewBox="0 0 68 80" fill="none" xmlns="http://www.w3.org/2000/svg">
<path d="M33.725 0.0432129C27.8874 0.0432129 24.3931 1.01577 22.1721 2.22842C21.0601 2.83627 20.2707 3.47451 19.7397 4.12794C19.206 4.78137 18.8696 5.74177 18.8696 5.74177C18.7825 5.98586 18.7245 6.24125 18.6973 6.50158L17.2184 27.3021C17.199 27.4297 17.2379 27.6364 17.2184 27.7762L17.0461 29.8672C17.0299 30.0562 17.0299 30.2465 17.0461 30.4355C17.0461 40.465 24.5516 48.6709 33.725 48.6709C42.8984 48.6709 50.4039 40.465 50.4039 30.4355V29.9614C50.4043 29.93 50.4043 29.8986 50.4039 29.8672L48.7527 6.50158C48.7254 6.24125 48.6675 5.98586 48.5803 5.74177C48.5803 5.74177 48.244 4.78137 47.7102 4.12794C47.1793 3.47147 46.3898 2.83323 45.2779 2.22842C43.0568 1.01273 39.5626 0.0432129 33.725 0.0432129ZM33.725 48.6709C15.3782 48.6709 0.367188 58.1108 0.367188 66.6206V79.0632H67.0828V66.6206C67.0828 58.5363 53.5117 49.6313 36.4186 48.7651C35.522 48.7004 34.6236 48.669 33.725 48.6709ZM33.725 6.12168C39.0066 6.12168 41.6447 7.03345 42.7594 7.64129C43.1319 7.84492 43.1763 7.92394 43.282 8.0212L44.4106 23.5973C41.8532 23.7675 38.3673 24.3571 33.725 24.3571C29.0827 24.3571 25.5996 23.7675 23.0394 23.5973L24.168 8.0212C24.2708 7.92394 24.3181 7.84492 24.6906 7.64129C25.8053 7.03345 28.4433 6.12168 33.725 6.12168ZM31.465 9.16091V12.7715H28.1653V17.7103H31.4678V21.3178H35.9822V17.7072H39.2846V12.7715H35.9822V9.16091H31.4678H31.465ZM25.3855 55.5092L32.5102 72.9848H5.92682V66.6206C5.92682 64.3564 13.0153 57.7248 25.3855 55.5092ZM42.0644 55.5092C54.4346 57.7278 61.5231 64.3564 61.5231 66.6206V72.9848H34.9398L42.0644 55.5092Z" fill="#EC5863"/>
</svg>
