<svg width="548" height="434" viewBox="0 0 548 434" fill="none" xmlns="http://www.w3.org/2000/svg">
<path opacity="0.6" d="M318.251 77.2482C283.183 75.9098 249.758 63.477 217.888 49.8772C186.019 36.2775 154.431 21.2066 120.185 14.0002C98.1664 9.36003 72.9852 8.70742 55.2475 21.6712C38.1746 34.1427 32.6599 55.6733 29.6935 75.6499C27.4625 90.682 26.1682 106.5 32.2671 120.575C36.5126 130.342 44.0469 138.555 49.2594 147.913C67.3899 180.471 54.5726 220.624 34.9212 252.441C25.7048 267.374 15.0129 281.582 7.90167 297.46C0.790478 313.339 -2.50323 331.529 3.72158 347.722C9.89099 363.761 24.5868 375.829 40.5114 384.307C72.8542 401.513 110.964 406.435 148.126 409.256C230.388 415.434 313.094 412.757 395.572 410.08C426.097 409.084 456.758 408.083 486.784 402.89C503.459 400.009 520.678 395.44 532.785 384.412C548.151 370.409 551.963 346.705 541.664 329.145C524.39 299.7 476.631 292.383 464.554 260.781C457.911 243.388 464.735 224.008 474.395 207.876C495.109 173.271 529.839 142.908 531.667 103.347C532.926 76.1753 516.231 48.9702 490.415 36.1116C463.36 22.6224 425.84 24.3258 405.882 46.6197C385.329 69.5883 349.209 78.4262 318.251 77.2482Z" fill="#587EEC"/>
<path d="M122.436 401.9C122.436 401.9 94.7368 378.904 89.5042 349.653C87.3822 337.367 81.6903 326.168 73.2824 317.736C69.2602 313.769 64.9159 310.214 60.304 307.117" stroke="#9AB1F3" stroke-width="2" stroke-miterlimit="10"/>
<path d="M56.9146 288.689C59.342 292.295 60.4399 307.576 60.4399 307.576C60.4399 307.576 47.4615 301.962 45.029 298.362C43.8609 296.631 43.3668 294.462 43.6554 292.331C43.9439 290.2 44.9915 288.282 46.5676 286.999C48.1437 285.717 50.1193 285.174 52.0597 285.491C54.0002 285.808 55.7465 286.958 56.9146 288.689Z" fill="#587EEC"/>
<path d="M80.1922 300.679C80.444 305.153 73.8113 318.637 73.8113 318.637C73.8113 318.637 65.6878 306.171 65.431 301.697C65.3333 299.564 66.0049 297.474 67.3003 295.881C68.5957 294.288 70.4105 293.32 72.3515 293.186C74.2925 293.052 76.2034 293.763 77.6701 295.166C79.1367 296.569 80.0411 298.549 80.1872 300.679H80.1922Z" fill="#587EEC"/>
<path d="M102.755 335.146C100.921 339.15 88.9905 347.114 88.9905 347.114C88.9905 347.114 87.7163 331.85 89.5495 327.845C90.4519 325.962 91.9914 324.544 93.8368 323.895C95.6821 323.246 97.6857 323.418 99.4164 324.375C101.147 325.332 102.467 326.996 103.091 329.011C103.715 331.025 103.594 333.228 102.755 335.146Z" fill="#587EEC"/>
<path d="M114.484 365.432C113.29 369.718 102.759 379.778 102.759 379.778C102.759 379.778 99.1484 364.972 100.342 360.681C100.916 358.621 102.211 356.897 103.943 355.886C105.674 354.875 107.701 354.661 109.576 355.291C111.451 355.921 113.022 357.343 113.942 359.245C114.863 361.147 115.058 363.372 114.484 365.432Z" fill="#587EEC"/>
<path d="M61.8047 329.477C65.8337 330.074 78.5704 323.758 78.5704 323.758C78.5704 323.758 67.8231 313.98 63.7739 313.383C61.8305 313.096 59.8629 313.669 58.304 314.975C56.7452 316.282 55.7227 318.215 55.4616 320.349C55.2004 322.483 55.722 324.644 56.9116 326.356C58.1012 328.068 59.8613 329.19 61.8047 329.477Z" fill="#587EEC"/>
<path d="M75.9314 364.713C79.9604 363.955 90.3703 353.751 90.3703 353.751C90.3703 353.751 77.4473 347.955 73.4233 348.713C72.4599 348.886 71.5373 349.267 70.7088 349.834C69.8802 350.401 69.1622 351.143 68.5961 352.016C68.0299 352.89 67.6269 353.878 67.4103 354.923C67.1937 355.969 67.1678 357.051 67.3341 358.107C67.5003 359.164 67.8555 360.173 68.379 361.078C68.9026 361.983 69.5842 362.765 70.3844 363.379C71.1847 363.994 72.0877 364.428 73.0415 364.656C73.9953 364.885 74.9809 364.904 75.9415 364.713H75.9314Z" fill="#587EEC"/>
<path d="M93.936 396.895C98.0204 396.895 109.856 388.771 109.856 388.771C109.856 388.771 98.0153 380.657 93.9309 380.657C91.9701 380.657 90.0896 381.512 88.7031 383.035C87.3166 384.558 86.5377 386.623 86.5377 388.776C86.5377 390.929 87.3166 392.994 88.7031 394.517C90.0896 396.04 91.9701 396.895 93.9309 396.895H93.936Z" fill="#587EEC"/>
<path d="M391.523 203.003C391.523 203.003 408.596 169.792 434.331 160.224C445.138 156.283 454.489 148.6 460.983 138.328C464.029 133.418 466.657 128.21 468.835 122.771" stroke="#9AB1F3" stroke-width="2" stroke-miterlimit="10"/>
<path d="M484.991 116.687C482.06 119.806 468.417 123.036 468.417 123.036C468.417 123.036 471.766 108.159 474.697 105.034C476.112 103.579 477.99 102.793 479.928 102.844C481.865 102.895 483.707 103.78 485.056 105.308C486.406 106.835 487.155 108.884 487.143 111.012C487.131 113.14 486.358 115.178 484.991 116.687Z" fill="#587EEC"/>
<path d="M477.275 143.582C473.246 144.456 460.218 139.025 460.218 139.025C460.218 139.025 470.391 128.517 474.395 127.66C475.356 127.425 476.35 127.404 477.319 127.598C478.288 127.791 479.212 128.195 480.037 128.786C480.861 129.377 481.57 130.143 482.122 131.039C482.673 131.935 483.056 132.943 483.248 134.004C483.44 135.064 483.437 136.156 483.239 137.216C483.041 138.275 482.653 139.28 482.097 140.173C481.54 141.065 480.827 141.826 479.999 142.412C479.171 142.997 478.245 143.395 477.275 143.582Z" fill="#587EEC"/>
<path d="M449.193 172.718C445.336 171.252 436.567 159.328 436.567 159.328C436.567 159.328 450.165 155.91 454.033 157.376C454.962 157.714 455.821 158.252 456.56 158.958C457.298 159.664 457.902 160.524 458.335 161.488C458.768 162.452 459.023 163.501 459.084 164.575C459.145 165.648 459.012 166.723 458.691 167.739C458.371 168.755 457.87 169.691 457.217 170.493C456.565 171.294 455.773 171.946 454.89 172.409C454.006 172.872 453.048 173.138 452.07 173.191C451.092 173.244 450.114 173.083 449.193 172.718Z" fill="#587EEC"/>
<path d="M423.388 189.508C419.359 188.778 408.903 178.63 408.903 178.63C408.903 178.63 421.791 172.734 425.815 173.464C427.752 173.814 429.483 174.994 430.627 176.746C431.771 178.497 432.235 180.676 431.916 182.803C431.598 184.929 430.523 186.83 428.928 188.087C427.334 189.343 425.35 189.853 423.413 189.503L423.388 189.508Z" fill="#587EEC"/>
<path d="M448.841 127.394C448.836 131.88 456.244 144.893 456.244 144.893C456.244 144.893 463.642 131.896 463.642 127.416C463.668 126.333 463.496 125.254 463.136 124.245C462.776 123.235 462.236 122.315 461.547 121.539C460.858 120.762 460.035 120.145 459.126 119.724C458.216 119.303 457.239 119.086 456.252 119.086C455.265 119.086 454.287 119.303 453.378 119.724C452.468 120.145 451.645 120.762 450.956 121.539C450.267 122.315 449.727 123.235 449.367 124.245C449.007 125.254 448.835 126.333 448.861 127.416L448.841 127.394Z" fill="#587EEC"/>
<path d="M418.91 147.448C420.129 151.729 430.725 161.712 430.725 161.712C430.725 161.712 434.251 146.879 433.022 142.598C432.385 140.615 431.071 138.98 429.359 138.039C427.646 137.098 425.668 136.923 423.84 137.552C422.013 138.18 420.478 139.563 419.561 141.409C418.643 143.255 418.414 145.42 418.92 147.448H418.91Z" fill="#587EEC"/>
<path d="M392.284 171.324C392.828 175.748 401.732 187.567 401.732 187.567C401.732 187.567 407.478 173.602 406.934 169.161C406.826 168.085 406.523 167.044 406.044 166.098C405.564 165.153 404.917 164.322 404.14 163.655C403.364 162.988 402.473 162.498 401.522 162.215C400.571 161.931 399.577 161.859 398.6 162.004C397.623 162.148 396.683 162.505 395.833 163.054C394.984 163.604 394.243 164.334 393.654 165.203C393.066 166.071 392.641 167.06 392.406 168.111C392.171 169.162 392.129 170.255 392.284 171.324Z" fill="#587EEC"/>
<path opacity="0.25" d="M484.991 116.687C482.06 119.806 468.417 123.036 468.417 123.036C468.417 123.036 471.766 108.159 474.697 105.034C476.112 103.579 477.99 102.793 479.928 102.844C481.865 102.895 483.707 103.78 485.056 105.308C486.406 106.835 487.155 108.884 487.143 111.012C487.131 113.14 486.358 115.178 484.991 116.687Z" fill="black"/>
<path opacity="0.25" d="M477.275 143.582C473.246 144.456 460.218 139.025 460.218 139.025C460.218 139.025 470.391 128.517 474.395 127.66C475.356 127.425 476.35 127.404 477.319 127.598C478.288 127.791 479.212 128.195 480.037 128.786C480.861 129.377 481.57 130.143 482.122 131.039C482.673 131.935 483.056 132.943 483.248 134.004C483.44 135.064 483.437 136.156 483.239 137.216C483.041 138.275 482.653 139.28 482.097 140.173C481.54 141.065 480.827 141.826 479.999 142.412C479.171 142.997 478.245 143.395 477.275 143.582Z" fill="black"/>
<path opacity="0.25" d="M449.193 172.718C445.336 171.252 436.567 159.328 436.567 159.328C436.567 159.328 450.165 155.91 454.033 157.376C454.962 157.714 455.821 158.252 456.56 158.958C457.298 159.664 457.902 160.524 458.335 161.488C458.768 162.452 459.023 163.501 459.084 164.575C459.145 165.648 459.012 166.723 458.691 167.739C458.371 168.755 457.87 169.691 457.217 170.493C456.565 171.294 455.773 171.946 454.89 172.409C454.006 172.872 453.048 173.138 452.07 173.191C451.092 173.244 450.114 173.083 449.193 172.718Z" fill="black"/>
<path opacity="0.25" d="M423.388 189.508C419.359 188.778 408.903 178.63 408.903 178.63C408.903 178.63 421.791 172.734 425.815 173.464C427.752 173.814 429.483 174.994 430.627 176.746C431.771 178.497 432.235 180.676 431.916 182.803C431.598 184.929 430.523 186.83 428.928 188.087C427.334 189.343 425.35 189.853 423.413 189.503L423.388 189.508Z" fill="black"/>
<path opacity="0.25" d="M448.841 127.394C448.836 131.88 456.244 144.893 456.244 144.893C456.244 144.893 463.642 131.896 463.642 127.416C463.668 126.333 463.496 125.254 463.136 124.245C462.776 123.235 462.236 122.315 461.547 121.539C460.858 120.762 460.035 120.145 459.126 119.724C458.216 119.303 457.239 119.086 456.252 119.086C455.265 119.086 454.287 119.303 453.378 119.724C452.468 120.145 451.645 120.762 450.956 121.539C450.267 122.315 449.727 123.235 449.367 124.245C449.007 125.254 448.835 126.333 448.861 127.416L448.841 127.394Z" fill="black"/>
<path opacity="0.25" d="M418.91 147.448C420.129 151.729 430.725 161.712 430.725 161.712C430.725 161.712 434.251 146.879 433.022 142.598C432.385 140.615 431.071 138.98 429.359 138.039C427.646 137.098 425.668 136.923 423.84 137.552C422.013 138.18 420.478 139.563 419.561 141.409C418.643 143.255 418.414 145.42 418.92 147.448H418.91Z" fill="black"/>
<path opacity="0.25" d="M392.284 171.324C392.828 175.748 401.732 187.567 401.732 187.567C401.732 187.567 407.478 173.602 406.934 169.161C406.826 168.085 406.523 167.044 406.044 166.098C405.564 165.153 404.917 164.322 404.14 163.655C403.364 162.988 402.473 162.498 401.522 162.215C400.571 161.931 399.577 161.859 398.6 162.004C397.623 162.148 396.683 162.505 395.833 163.054C394.984 163.604 394.243 164.334 393.654 165.203C393.066 166.071 392.641 167.06 392.406 168.111C392.171 169.162 392.129 170.255 392.284 171.324Z" fill="black"/>
<path d="M392.505 202.345C392.505 202.345 395.859 164.383 415.833 144.196C424.258 135.783 429.972 124.598 432.12 112.318C433.098 106.48 433.585 100.556 433.576 94.6199" stroke="#9AB1F3" stroke-width="2" stroke-miterlimit="10"/>
<path d="M446.096 81.811C444.585 85.97 433.284 94.996 433.284 94.996C433.284 94.996 430.856 79.903 432.382 75.7439C433.117 73.7469 434.544 72.1521 436.349 71.3104C438.155 70.4687 440.191 70.4491 442.009 71.2559C443.828 72.0626 445.28 73.6296 446.046 75.6122C446.813 77.5948 446.831 79.8306 446.096 81.8276V81.811Z" fill="#587EEC"/>
<path d="M448.972 109.862C445.633 112.44 431.697 113.286 431.697 113.286C431.697 113.286 437.126 99.1605 440.465 96.5833C441.257 95.9325 442.16 95.4627 443.12 95.2019C444.08 94.9411 445.078 94.8946 446.055 95.065C447.032 95.2354 447.968 95.6193 448.807 96.194C449.647 96.7687 450.372 97.5225 450.942 98.4107C451.511 99.299 451.912 100.304 452.121 101.365C452.331 102.427 452.344 103.524 452.16 104.591C451.976 105.658 451.6 106.674 451.052 107.579C450.504 108.483 449.797 109.258 448.972 109.857V109.862Z" fill="#587EEC"/>
<path d="M434.034 149.008C429.965 149.384 417.546 142.371 417.546 142.371C417.546 142.371 428.726 133.19 432.795 132.814C434.75 132.634 436.689 133.313 438.187 134.703C439.685 136.093 440.619 138.079 440.783 140.225C440.947 142.371 440.328 144.501 439.063 146.146C437.797 147.791 435.988 148.816 434.034 148.997V149.008Z" fill="#587EEC"/>
<path d="M416.654 175.826C412.701 176.932 399.385 172.358 399.385 172.358C399.385 172.358 408.989 161.236 412.942 160.108C414.84 159.567 416.856 159.877 418.546 160.968C420.237 162.06 421.463 163.844 421.955 165.929C422.447 168.013 422.165 170.227 421.171 172.083C420.177 173.939 418.552 175.285 416.654 175.826Z" fill="#587EEC"/>
<path d="M417.007 107.716C418.659 111.814 430.212 120.437 430.212 120.437C430.212 120.437 432.176 105.261 430.524 101.162C429.701 99.2451 428.228 97.7573 426.419 97.017C424.61 96.2766 422.609 96.3425 420.844 97.2004C419.079 98.0584 417.69 99.6404 416.973 101.609C416.256 103.577 416.268 105.775 417.007 107.733V107.716Z" fill="#587EEC"/>
<path d="M397.043 139.362C399.737 142.731 413.104 147.144 413.104 147.144C413.104 147.144 410.847 132.018 408.153 128.65C407.517 127.831 406.739 127.16 405.865 126.675C404.991 126.19 404.037 125.9 403.06 125.823C402.083 125.745 401.102 125.882 400.173 126.225C399.245 126.568 398.388 127.11 397.652 127.82C396.915 128.53 396.315 129.393 395.886 130.36C395.456 131.326 395.205 132.377 395.149 133.451C395.092 134.525 395.23 135.601 395.556 136.616C395.881 137.63 396.386 138.564 397.043 139.362Z" fill="#587EEC"/>
<path d="M381.486 173.055C383.621 176.871 396.116 183.701 396.116 183.701C396.116 183.701 396.222 168.376 394.102 164.554C393.046 162.79 391.407 161.546 389.53 161.087C387.654 160.628 385.688 160.99 384.05 162.095C382.413 163.201 381.232 164.964 380.758 167.01C380.284 169.056 380.554 171.224 381.511 173.055H381.486Z" fill="#587EEC"/>
<path d="M366.82 53.6769C367.656 50.3087 368.664 46.924 369.369 43.5116C368.523 46.924 367.51 50.3198 366.82 53.6769Z" fill="url(#paint0_linear_4_6)"/>
<path d="M363.073 86.1193C363.003 85.9866 362.953 85.8539 362.897 85.7322C362.897 85.6769 362.847 85.6326 362.827 85.5773C362.717 85.6342 362.604 85.6841 362.489 85.7267C362.268 85.8207 362.041 85.9092 361.809 85.9811C361.578 86.053 361.482 86.0917 361.306 86.1359C361.16 86.1912 361.01 86.2338 360.857 86.2631L360.898 86.3627C361.084 86.3184 361.265 86.2797 361.452 86.2244L361.502 86.9102C361.714 86.9102 361.91 86.877 362.101 86.877C362.192 86.8716 362.283 86.8716 362.373 86.877C362.766 86.877 363.109 86.877 363.381 86.877C363.275 86.6282 363.164 86.3682 363.073 86.1193ZM465.309 264.83C462.942 261.329 458.218 223.754 458.218 223.754C458.218 223.754 448.926 197.036 451.46 186.373C453.993 175.71 444.54 148.427 444.54 148.427C444.54 148.427 438.295 145.446 437.957 141.022C437.957 141.022 412.459 132.173 411.265 125.536C410.298 120.094 394.485 116.189 388.804 114.956C387.071 107.279 385.329 100.117 384.044 96.2072C383.697 94.9904 383.37 93.9396 383.067 93.11C380.897 87.0264 374.188 86.4733 369.323 86.96C369.113 85.9231 368.721 84.9409 368.17 84.0675C368.09 83.7672 367.93 83.4998 367.712 83.2987C367.607 83.201 367.496 83.1123 367.379 83.0333C367.291 82.854 367.175 82.693 367.037 82.5576C366.899 82.4209 366.747 82.3021 366.584 82.2037C366.467 82.1341 366.345 82.0732 366.221 82.0212C365.929 81.8991 365.627 81.8083 365.32 81.7502C364.961 81.6692 364.597 81.6174 364.232 81.5953C365.121 81.1683 365.913 80.532 366.553 79.7315C366.989 79.1695 367.313 78.514 367.505 77.8068C367.665 77.2187 367.736 76.6061 367.717 75.9928C367.586 76.2455 367.434 76.4844 367.264 76.7063C367.475 74.2562 366.297 71.7674 365.622 69.3284C364.804 66.1532 364.653 62.8157 365.179 59.5669C365.853 54.6668 367.525 49.7114 368.659 44.7228C368.661 44.6952 368.661 44.6674 368.659 44.6398C369.253 42.1624 369.621 39.626 369.757 37.0684C369.953 31.9084 368.749 26.7594 366.815 22.0584C365.098 17.8938 362.565 13.7956 358.687 12.1033C355.806 10.8257 352.578 11.0303 349.476 10.8202C342.515 10.3445 335.878 7.65666 329.26 5.21213C322.642 2.76761 315.833 0.544303 308.868 0.970159C301.903 1.39602 294.736 5.08493 291.559 11.8544C290.551 13.9671 289.972 16.3176 288.769 18.3031C286.512 22.0473 282.473 23.9222 279.104 26.505C275.735 29.0877 272.768 32.7545 271.55 37.1292C270.884 39.4862 270.79 41.9931 271.278 44.402C271.387 44.946 271.529 45.4817 271.701 46.0059C272.179 47.4672 272.924 48.8055 273.891 49.9381C274.621 50.7753 275.459 51.4891 276.379 52.0563C277.535 52.7597 278.771 53.288 280.056 53.627C280.01 53.7929 279.965 53.9699 279.915 54.1414C279.834 54.4234 279.764 54.6944 279.688 54.9986C279.522 55.6789 279.366 56.3702 279.235 57.0671C279.23 57.1167 279.23 57.1668 279.235 57.2164C278.616 60.3622 278.306 63.5716 278.308 66.7899C278.307 68.3119 278.378 69.833 278.52 71.3471C280.534 93.7903 297.406 111.494 318.251 112.644C318.966 112.683 319.686 112.705 320.416 112.705C320.749 112.705 321.076 112.705 321.424 112.705C321.751 113.181 322.073 113.667 322.38 114.143C322.688 114.619 322.97 115.105 323.237 115.581L322.506 114.751L321.776 114.016C321.578 114.314 321.357 114.593 321.116 114.851C320.64 114.667 320.154 114.515 319.661 114.397C317.571 113.888 314.388 113.7 310.198 115.089C306.345 116.355 301.636 118.96 296.126 123.91L269.278 141.608L254.754 151.309L249.521 165.356C249.521 165.356 245.588 182.048 241.211 201.172C241.04 201.228 240.874 201.283 240.708 201.349C240.353 201.305 239.997 201.283 239.64 201.283C237.101 201.277 234.658 202.351 232.825 204.28C230.992 206.21 229.911 208.845 229.809 211.631C221.106 223.245 220.613 234.859 222.658 240.191C222.843 240.69 223.076 241.167 223.353 241.612C224.692 243.736 227.195 249.211 229.734 255.046C229.668 255.527 229.628 255.931 229.608 256.235C229.603 256.335 229.603 256.434 229.608 256.534C229.608 256.534 231.118 281.593 226.082 288.777C224.979 290.342 225.145 292.4 226.082 294.678C229.457 302.875 242.798 313.82 242.798 313.82C242.798 313.82 258.798 313.726 267.712 312.658C267.687 313.643 267.667 314.622 267.646 315.579C267.445 325.246 267.445 333.348 267.445 333.348L267.113 343.486C267.113 343.486 264.091 364.851 262.58 370.741C261.628 374.435 262.726 408.642 263.683 433.79H421.328C423.181 418.912 420.567 373.711 420.567 373.711C420.567 373.711 418.084 362.025 417.994 351.837C417.989 351.826 417.986 351.814 417.986 351.801C417.986 351.789 417.989 351.776 417.994 351.765C417.994 350.875 417.994 350.007 418.024 349.155L419.167 349.111L421.222 349.033H421.408C421.408 349.033 421.459 348.823 421.574 348.48C421.846 347.626 422.217 346.814 422.677 346.063C423.554 344.642 424.924 343.248 426.983 343.154C428.122 343.104 429.884 342.092 431.874 340.599C431.887 340.602 431.901 340.602 431.914 340.599C437.267 336.622 444.343 329.283 446.061 328.078C448.423 326.419 459.734 315.357 459.734 315.357C459.734 315.357 461.421 313.012 463.219 310.186L463.285 310.087C465.521 306.547 467.898 302.316 467.314 300.983C466.307 298.594 467.989 292.881 467.989 292.881C473.241 282.323 467.676 268.331 465.309 264.83ZM367.923 94.7194C367.972 94.8845 368.002 95.0553 368.014 95.2282C367.888 95.0457 367.762 94.8522 367.636 94.6752L367.515 94.4982L367.43 94.3655L367.621 94.0779C367.621 94.0779 367.621 94.0779 367.621 94.1166C367.754 94.2959 367.856 94.5001 367.923 94.7194ZM366.231 89.8193C365.682 89.941 365.249 90.0516 364.967 90.1346C364.609 89.4377 364.267 88.7408 363.96 88.0329C364.767 88.5473 365.528 89.1455 366.231 89.8193ZM365.284 90.6931C365.283 90.6821 365.283 90.671 365.284 90.66L365.325 90.6931C365.531 90.8425 365.733 90.9863 365.919 91.1356C366.085 91.2683 366.236 91.3955 366.387 91.5283C366.287 91.7218 366.176 91.9209 366.065 92.0813C365.889 91.7771 365.722 91.484 365.561 91.1798C365.461 91.0582 365.37 90.8922 365.284 90.6931ZM362.263 83.8684C363.236 83.763 364.216 83.763 365.189 83.8684C365.325 83.8684 365.445 83.896 365.566 83.9182C365.839 83.9645 366.108 84.0405 366.367 84.1449C366.962 85.0593 367.329 86.1291 367.43 87.2476L367.158 87.2918L366.891 87.3471C366.387 87.4411 365.884 87.5352 365.491 87.6237L364.987 87.7398C364.317 87.9002 363.93 88.0219 363.914 88.0274C363.849 87.8781 363.784 87.7398 363.713 87.596C363.602 87.3582 363.486 87.1148 363.386 86.877C363.285 86.6392 363.154 86.3682 363.048 86.1193C362.978 85.9866 362.927 85.8539 362.872 85.7322C362.872 85.6769 362.822 85.6326 362.801 85.5773C362.772 85.5187 362.747 85.4577 362.726 85.3948C362.419 84.709 362.137 84.0232 361.865 83.3485C361.834 83.2821 361.809 83.2102 361.784 83.1439L362.167 83.1162V83.26L362.263 83.8684ZM242.103 426.954C242.062 418.719 241.518 409.809 240.007 401.447C239.363 397.891 238.698 394.334 238.023 390.839C237.852 389.965 237.686 389.102 237.52 388.24L235.968 388.466H235.827C231.597 366.56 227.175 347.258 227.175 347.258C227.175 347.258 218.392 310.43 219.409 307.493C219.54 307.111 219.374 306.082 219.001 304.573C216.876 296.199 208.002 273.126 204.9 265.239C204.9 265.206 204.875 265.167 204.864 265.139C204.361 263.818 203.998 262.927 203.887 262.667L204.618 250.898L204.658 250.19L204.754 248.686L204.713 248.647L204.754 247.95C204.754 247.95 197.089 241.048 184.105 236.065C183.601 235.866 183.068 235.672 182.539 235.484C183.188 230.722 184.05 225.347 185.173 220.109C185.279 219.584 185.394 219.075 185.515 218.561C185.621 218.046 185.742 217.549 185.863 217.045C186.054 216.227 186.261 215.419 186.472 214.623C187.172 214.38 187.862 214.109 188.542 213.821L188.804 213.71C197.18 210.131 204.091 203.341 208.258 194.596C212.424 185.851 213.565 175.744 211.467 166.147C210.271 160.704 208.063 155.592 204.98 151.132C204.749 150.789 204.502 150.446 204.255 150.108C204.008 149.771 203.711 149.395 203.434 149.052C204.89 145.418 206.607 141.962 206.748 138.428C206.773 137.98 206.773 137.531 206.748 137.084V137.029C206.562 134.755 205.645 132.455 203.51 130.038C200.392 126.493 195.955 124.695 191.518 123.833C187.081 122.97 182.559 122.948 178.097 122.367C170.699 121.394 163.492 118.888 156.093 118.119C146.981 117.193 137.806 118.909 129.487 123.097C123.982 125.862 118.407 130.696 118.075 137.327C117.803 142.808 121.278 148.062 120.401 153.477C119.53 158.797 114.595 162.984 115.028 168.365C115.194 170.467 116.176 172.347 117.405 174.023C117.828 174.576 118.276 175.129 118.74 175.682C120.532 177.767 122.507 179.769 123.509 182.396C123.549 182.507 123.589 182.617 123.625 182.728C124.476 185.322 124.093 188.601 121.988 190.089C122 190.099 122.008 190.113 122.013 190.128C122.043 190.172 122.074 190.205 122.099 190.25C122.102 190.241 122.102 190.231 122.099 190.222C122.845 191.194 123.851 191.883 124.974 192.191L125.402 192.335C125.055 192.749 124.728 193.181 124.395 193.634L124.179 193.95C123.624 194.769 123.119 195.628 122.668 196.521C122.411 197.019 122.164 197.517 121.958 198.014C121.267 199.532 120.768 201.145 120.472 202.81C119.933 206.471 120.694 210.287 119.878 213.871C118.87 218.295 115.683 221.691 113.885 225.8C110.48 233.543 112.409 242.63 113.094 251.18C114.026 262.794 112.515 274.458 111.009 285.995C110.21 292.131 109.411 298.271 108.612 304.418C106.597 319.844 104.583 335.271 102.568 350.698C101.833 356.35 100.962 362.312 97.5319 366.676H97.5671C97.5671 366.676 97.5671 366.709 97.5319 366.72C98.5614 367.214 99.6564 367.524 100.775 367.638C105.252 368.13 109.997 365.752 114.026 363.153C117.216 361.128 120.238 358.798 123.056 356.19C122.643 357.849 122.199 359.657 121.726 361.604C121.728 361.623 121.728 361.641 121.726 361.66C116.04 385.441 106.894 429.039 106.894 429.039C106.894 429.039 106.063 430.936 104.986 433.762H247.008C245.346 431.55 243.8 429.432 242.591 427.723L242.103 426.954ZM136.946 207.057C136.981 206.991 137.006 206.93 137.041 206.869C137.041 207.046 137.041 207.217 137.041 207.383C137.041 207.549 137.041 207.699 137.041 207.853C137.041 208.008 137.041 207.992 137.041 208.069C137.041 208.147 137.041 208.069 137.041 208.069C137.041 208.296 136.996 208.523 136.961 208.749C136.961 208.749 136.961 208.777 136.961 208.799L137.464 209.004L138.049 209.269C141.5 210.766 144.995 212.121 148.534 213.334C148.897 213.461 149.264 213.583 149.632 213.699L149.707 214.385C149.798 215.087 149.884 215.801 149.964 216.514C149.964 216.514 149.964 216.548 149.964 216.57C150.191 218.544 150.413 220.513 150.609 222.438C150.609 222.438 141.362 218.566 141.478 224.445C141.473 224.55 141.473 224.656 141.478 224.761C141.468 224.9 141.468 225.041 141.478 225.181C141.564 229.76 142.868 232.476 143.13 233.869C143.114 233.927 143.087 233.98 143.05 234.024C142.826 234.558 142.749 235.152 142.828 235.733C142.819 236.723 142.89 237.711 143.039 238.687C142.767 238.869 142.501 239.052 142.234 239.24C142.032 239.378 141.841 239.533 141.644 239.688C140.409 234.981 138.793 230.406 136.815 226.016C135.43 222.886 133.873 219.623 133.889 216.188C133.889 215.967 133.889 215.74 133.914 215.513C133.97 214.518 134.143 213.535 134.427 212.588C134.543 212.228 134.669 211.874 134.81 211.526C135.139 210.698 135.507 209.889 135.913 209.103C136.175 208.583 136.452 208.069 136.719 207.549C136.805 207.394 136.885 207.234 136.966 207.079L136.946 207.057ZM363.073 86.1193C363.003 85.9866 362.953 85.8539 362.897 85.7322C362.897 85.6769 362.847 85.6326 362.827 85.5773C362.717 85.6342 362.604 85.6841 362.489 85.7267C362.268 85.8207 362.041 85.9092 361.809 85.9811C361.578 86.053 361.482 86.0917 361.306 86.1359L360.857 86.2631L360.898 86.3627C361.084 86.3184 361.265 86.2797 361.452 86.2244L361.502 86.9102C361.714 86.9102 361.91 86.877 362.101 86.877H362.373C362.766 86.877 363.109 86.877 363.381 86.877C363.275 86.6282 363.164 86.3682 363.073 86.1193Z" fill="url(#paint1_linear_4_6)"/>
<path d="M253.031 167.353L250.01 168.818C250.01 168.818 230.313 252.85 230.313 259.642C230.313 266.434 272.078 304.224 272.078 304.224L278.595 255.92C278.595 255.92 269.238 145.147 253.031 167.353Z" fill="#E8F5FF"/>
<path d="M344.646 140.623L327.195 130.624C326.218 126.048 324.483 121.709 322.078 117.821C319.525 113.772 316.13 109.796 311.9 107.722C301.208 102.457 357.126 74.8203 357.126 74.8203C358.006 78.1402 359.043 81.4077 360.233 84.6095C363.114 92.4187 367.893 102.518 374.052 105.393C384.523 110.288 344.646 140.623 344.646 140.623Z" fill="#FFB0B1"/>
<path opacity="0.1" d="M360.233 84.6095C357.844 93.8373 352.875 102.008 346.029 107.967C339.183 113.926 330.805 117.373 322.078 117.821C319.525 113.772 316.13 109.796 311.9 107.722C301.208 102.457 357.125 74.8203 357.125 74.8203C358.006 78.1402 359.043 81.4077 360.233 84.6095Z" fill="black"/>
<path d="M361.804 70.6557C361.806 79.7059 359.364 88.5534 354.787 96.0793C350.21 103.605 343.703 109.471 336.09 112.936C328.476 116.401 320.098 117.308 312.015 115.543C303.932 113.779 296.507 109.421 290.68 103.022C284.852 96.6232 280.883 88.47 279.275 79.5938C277.667 70.7176 278.492 61.5171 281.646 53.156C284.8 44.7948 290.141 37.6487 296.994 32.6212C303.847 27.5938 311.903 24.911 320.144 24.9121C325.622 24.8843 331.05 26.0484 336.116 28.3374C341.181 30.6263 345.784 33.9946 349.657 38.2477C353.531 42.5009 356.598 47.5547 358.683 53.1171C360.768 58.6796 361.829 64.6405 361.804 70.6557Z" fill="#FFB0B1"/>
<path d="M367.818 134.75L356.456 163.863L346.434 183.187H314.353L304.995 156.767L308.788 129.369H333.289L349.108 128.39L354.451 126.432L357.896 128.578L367.818 134.75Z" fill="#575A89"/>
<path opacity="0.1" d="M363.904 95.9417C363.904 95.9417 370.99 97.6009 364.645 103.314C358.299 109.027 336.406 127.195 336.406 127.195C336.406 127.195 344.097 134.717 342.505 143.527L367.984 127.931L372.516 102.977C372.516 102.977 373.025 95.4771 363.904 95.9417Z" fill="black"/>
<path opacity="0.1" d="M341.417 127.195L325.211 130.132C325.211 130.132 328.555 143.71 326.883 147.564C326.832 147.684 326.79 147.808 326.757 147.935L320.144 167.563L325.1 182.977L342.253 157.287L336.406 147.564C336.406 147.564 342.586 138.572 346.262 135.452C349.939 132.333 341.417 127.195 341.417 127.195Z" fill="black"/>
<path d="M341.417 126.437L325.211 129.369C325.211 129.369 328.555 142.946 326.883 146.801C326.832 146.921 326.79 147.045 326.757 147.172L320.144 166.8L325.1 182.214L342.253 156.507L336.406 146.785C336.406 146.785 342.586 137.792 346.262 134.673C349.939 131.553 341.417 126.437 341.417 126.437Z" fill="#DCE6F2"/>
<path d="M364.584 94.476C364.584 94.476 371.67 96.1352 365.32 101.848C358.969 107.561 336.406 127.195 336.406 127.195C336.406 127.195 344.762 133.251 343.175 142.056L368.654 126.465L373.186 101.511C373.186 101.511 373.69 94.0115 364.584 94.476Z" fill="#575A89"/>
<path opacity="0.1" d="M323.191 119.552C323.191 119.552 324.738 122.726 331.562 128.451C331.562 128.451 320.2 135.087 324.546 144.417L307.166 139.44L304.492 130.265L323.191 119.552Z" fill="black"/>
<path d="M322.521 118.822C322.521 118.822 324.067 121.996 330.892 127.721C330.892 127.721 319.53 134.324 323.876 143.682L306.501 138.704L303.827 129.535L322.521 118.822Z" fill="#575A89"/>
<path opacity="0.1" d="M367.818 134.75L356.456 163.863L346.454 183.187H314.353L304.995 156.767L308.783 129.369H315.597C315.486 135.762 317.611 143.273 317.475 146.066C317.243 150.656 323.71 175.422 323.71 175.422C323.71 175.422 337.242 151.386 342.586 149.246C345.945 147.902 353.061 136.719 357.891 128.578L367.818 134.75Z" fill="black"/>
<path d="M412.575 287.953L411.421 289.546C411.421 289.546 419.777 335.599 417.465 346.058C417.072 347.943 416.848 349.866 416.795 351.799V351.882C416.387 362.522 419.313 376.332 419.313 376.332C419.313 376.332 421.65 417.038 420.32 433.779H263.884C262.968 409.024 261.981 376.952 262.877 373.396C264.388 367.528 267.41 346.24 267.41 346.24L267.742 336.152C267.742 336.152 267.742 326.402 268.014 315.54C268.13 310.656 268.301 305.53 268.548 300.983C268.865 295.265 269.308 290.448 269.918 288.08C270.293 286.286 270.509 284.456 270.562 282.616C270.562 282.445 270.562 282.268 270.593 282.091C270.593 281.538 270.643 280.94 270.663 280.327C270.663 280.155 270.663 279.984 270.663 279.774C270.759 276.212 270.724 271.986 270.618 267.606C270.618 267.368 270.618 267.125 270.618 266.882C270.532 263.596 270.406 260.245 270.265 257.059C269.827 247.104 269.258 238.687 269.258 238.687L250.045 168.78L255.222 154.776L269.59 145.109L296.157 127.494C309.115 115.797 317.646 117.201 320.9 118.485C321.216 118.603 321.525 118.741 321.826 118.899C321.927 118.955 322.008 118.999 322.083 119.049C322.187 119.102 322.286 119.165 322.38 119.237C321.49 119.707 320.716 120.407 320.124 121.277C319.458 122.268 318.983 123.397 318.729 124.596C318.559 125.339 318.439 126.095 318.372 126.858C318.306 127.66 318.281 128.489 318.281 129.325C318.317 131.156 318.46 132.983 318.709 134.794C318.709 134.827 318.709 134.872 318.709 134.916C318.875 136.21 319.082 137.477 319.283 138.666C319.281 138.686 319.281 138.706 319.283 138.727C319.515 140.115 319.747 141.398 319.903 142.504C319.933 142.703 319.958 142.886 319.983 143.057C320.094 143.788 320.146 144.528 320.139 145.269C320.196 147.059 320.415 148.837 320.794 150.579C320.925 151.309 321.076 152.088 321.242 152.901C321.469 154.008 321.716 155.213 321.983 156.441C322.129 157.116 322.285 157.813 322.446 158.504C322.506 158.78 322.572 159.057 322.632 159.339L322.733 159.776C323.806 164.46 324.969 169.123 325.684 171.943C326.107 173.603 326.374 174.626 326.374 174.626C326.374 174.626 333.959 161.159 340.012 153.493C340.103 153.383 340.184 153.278 340.269 153.178C340.869 152.42 341.458 151.729 342.022 151.121C343.256 149.771 344.364 148.809 345.255 148.455C345.445 148.378 345.629 148.284 345.804 148.173C348.282 146.63 352.281 141.027 356.023 135.159C356.39 134.606 356.748 134.003 357.11 133.434C357.941 132.117 358.747 130.796 359.508 129.529C360.092 128.561 360.651 127.621 361.18 126.725C363.698 122.422 365.471 119.215 365.471 119.215L368.966 119.043L369.575 119.01H369.983L385.852 118.202C385.852 118.202 386.537 118.33 387.665 118.579C387.726 118.579 387.786 118.579 387.852 118.623C393.482 119.851 409.125 123.739 410.082 129.131C411.25 135.734 436.482 144.545 436.482 144.545C436.814 148.969 442.994 151.884 442.994 151.884C442.994 151.884 452.351 179.039 449.848 189.68C447.375 200.188 456.284 226.182 456.521 226.912L454.814 229.279L412.575 287.953Z" fill="#E8F5FF"/>
<path opacity="0.1" d="M363.899 94.0116C363.899 94.0116 379.345 89.2 382.856 99.1053C386.366 109.011 394.218 149.013 394.218 149.013C394.218 149.013 373.831 153.233 368.487 149.013C365.353 146.509 361.474 145.395 357.624 145.894L346.096 154.516L342.692 153.41C342.692 153.41 361.134 123.302 365.143 113.07C369.152 102.838 370.507 98.2646 363.899 94.0116Z" fill="black"/>
<path d="M363.23 91.7993C363.23 91.7993 378.686 86.9876 382.211 96.893C385.737 106.798 393.573 146.801 393.573 146.801C393.573 146.801 373.191 151.021 367.843 146.801C364.71 144.297 360.833 143.183 356.985 143.682L345.447 152.304L342.042 151.198C342.042 151.198 360.485 121.089 364.494 110.858C368.503 100.626 369.837 96.0634 363.23 91.7993Z" fill="#E8F5FF"/>
<path opacity="0.1" d="M259.548 251.385C259.548 251.385 271.076 254.504 273.252 261.661C275.428 268.817 264.731 269 264.731 269C264.731 269 258.214 256.34 259.548 251.385Z" fill="black"/>
<path opacity="0.1" d="M302.487 304.224C302.487 304.224 274.254 367.71 280.771 373.766C287.288 379.822 302.487 304.224 302.487 304.224Z" fill="black"/>
<path opacity="0.1" d="M341.417 257.441C341.417 257.441 363.975 319.107 359.462 328.631C354.95 338.155 369.152 328.631 369.152 328.631L341.417 257.441Z" fill="black"/>
<path d="M372.829 318.355C372.829 318.355 296.64 322.392 318.865 348.447C341.09 374.502 386.699 349.553 386.699 349.553L372.829 318.355Z" fill="#FFB0B1"/>
<path opacity="0.1" d="M361.804 70.6556C361.811 76.6564 360.738 82.5996 358.647 88.1434C357.947 88.2319 357.247 88.2872 356.572 88.3204C355.564 85.8925 356.103 83.0884 356.123 80.4172C356.144 77.7459 355.247 74.6045 352.905 73.8855C348.237 72.442 345.013 82.0266 340.41 80.2955C336.885 78.9792 337.807 73.1057 335.777 69.7154C334.17 67.0331 330.952 66.2754 328.449 64.5941C323.126 61.0047 323.287 55.264 320.814 49.8329C318.226 44.1419 312.756 45.8232 308.007 49.1803C304.401 51.7354 301.289 55.1589 297.431 57.1941C294.092 58.9639 290.34 59.6055 286.638 59.6995C284.359 59.7965 282.08 59.532 279.87 58.9142C282.469 48.1814 288.535 38.8534 296.935 32.6696C305.336 26.4859 315.498 23.8685 325.526 25.3057C335.554 26.7428 344.764 32.1364 351.438 40.4805C358.112 48.8246 361.795 59.5497 361.799 70.6556H361.804Z" fill="black"/>
<path d="M308.022 47.7149C304.411 50.27 301.304 53.6879 297.446 55.7343C294.107 57.4985 290.355 58.1401 286.653 58.2341C282.121 58.3447 277.241 57.4709 274.143 53.876C271.298 50.5576 270.618 45.4529 271.822 41.1003C273.025 36.7477 275.911 33.1362 279.3 30.5202C282.69 27.9043 286.623 26.0958 288.869 22.3515C290.058 20.3716 290.632 18.0377 291.619 15.9305C294.777 9.18869 301.878 5.53849 308.742 5.08498C315.607 4.63147 322.411 6.8769 328.948 9.31036C335.485 11.7438 342.072 14.4206 348.972 14.9239C352.044 15.1341 355.237 14.9239 358.088 16.2015C361.92 17.9105 364.433 21.9976 366.146 26.1566C368.064 30.8465 369.258 35.9679 369.057 41.0892C368.634 52.0232 362.056 62.7526 364.947 73.2276C365.713 76.0205 367.148 78.8854 366.382 81.6783C365.264 85.7544 360.475 86.6835 356.602 86.8771C355.595 84.4492 356.134 81.6396 356.154 78.9739C356.174 76.3081 355.277 73.1612 352.941 72.4422C348.267 71.0098 345.044 80.5777 340.451 78.8522C336.95 77.5304 337.857 71.6624 335.822 68.2721C334.216 65.5843 330.993 64.8321 328.495 63.1508C323.171 59.5614 323.332 53.8207 320.86 48.3896C318.251 42.671 312.776 44.3523 308.022 47.7149Z" fill="#575A89"/>
<path d="M234.145 258.171L230.303 259.642C230.303 259.642 231.813 284.596 226.777 291.753C221.741 298.909 243.316 316.701 243.316 316.701C243.316 316.701 272.889 316.519 273.725 313.936C274.561 311.353 272.214 267.7 272.214 267.7C272.214 267.7 256.34 260.909 257.675 250.085C257.675 250.085 252.83 275.587 245.648 274.486C238.466 273.386 230.313 266.799 234.145 258.171Z" fill="#E8F5FF"/>
<path opacity="0.1" d="M246.963 282.207C252.562 282.207 257.101 277.648 257.101 272.025C257.101 266.402 252.562 261.843 246.963 261.843C241.364 261.843 236.825 266.402 236.825 272.025C236.825 277.648 241.364 282.207 246.963 282.207Z" fill="black"/>
<path d="M258.047 258.907C258.047 258.907 256.033 191.389 238.497 206.432C220.961 221.475 220.789 239.466 224.128 244.781C227.467 250.096 238.174 276.704 238.174 276.704C239.849 277.77 241.73 278.385 243.663 278.499C245.596 278.612 247.526 278.222 249.295 277.358C251.064 276.495 252.622 275.184 253.84 273.532C255.058 271.88 255.903 269.935 256.305 267.855L258.047 258.907Z" fill="#FFB0B1"/>
<path opacity="0.1" d="M367.44 87.8836C367.358 87.5869 367.201 87.3221 366.986 87.1204C366.12 86.2521 364.257 85.9479 361.447 86.2133L361.562 87.6734C365.309 87.3195 366.05 88.138 366.145 88.2763V88.4145L366.261 88.597C366.728 89.2866 367.059 90.0756 367.233 90.9137C367.406 91.7518 367.418 92.6204 367.269 93.464C366.448 97.9714 361.406 101.561 361.356 101.599L361.235 101.677L361.16 101.804C358.984 105.349 346.68 115.354 343.462 117.942L343.18 117.588C341.74 118.96 329.079 131.133 328.394 135.795C327.951 138.721 324.949 139.855 323.861 140.17C322.713 139.213 318.986 135.956 317.047 132.305C315.229 128.871 322.547 122.168 323.191 119.552L322.184 118.418C322.078 118.838 312.681 128.484 315.294 133.412C317.389 137.366 321.217 140.751 322.557 141.868C322.129 146.137 319.464 171.208 315.37 177.148C310.283 184.531 306.008 221.741 306.481 234.732C306.899 246.275 304.154 268.076 294.988 277.44C293.401 279.132 291.487 280.408 289.388 281.174C287.289 281.941 285.06 282.176 282.866 281.864H282.755H282.644C282.513 281.864 269.218 283.357 258.047 273.015C248.907 264.57 243.729 250.788 242.652 232.039H242.43L242.339 226.58C244.818 226.155 247.05 224.692 248.566 222.498C250.083 220.304 250.766 217.55 250.472 214.814C250.179 212.078 248.931 209.574 246.991 207.828C245.051 206.081 242.57 205.229 240.07 205.449C237.569 205.669 235.244 206.944 233.582 209.008C231.92 211.071 231.052 213.762 231.158 216.514C231.265 219.266 232.339 221.866 234.154 223.766C235.97 225.667 238.385 226.721 240.894 226.707H241.005L241.095 232.133L240.652 232.166C241.76 251.523 247.199 265.842 256.768 274.685C264.041 281.304 273.331 284.642 282.76 284.026C283.429 284.107 284.102 284.147 284.775 284.148C289.097 284.173 293.255 282.336 296.358 279.032C306.013 269.16 308.949 246.557 308.49 234.622C307.987 220.856 312.474 184.984 316.976 178.453C321.388 172.043 324.062 147.067 324.531 142.227C326.127 141.735 329.738 140.181 330.353 136.144C330.796 133.223 339.252 124.225 344.454 119.242L344.298 119.043C347.098 116.798 355.806 109.718 360.122 105.172C361.462 103.762 362.791 102.352 364.181 101.008C365.853 99.3817 367.979 96.7989 368.538 93.746C368.728 92.7383 368.729 91.6984 368.54 90.6902C368.352 89.6821 367.977 88.727 367.44 87.8836Z" fill="black"/>
<path d="M322.386 141.519C322.174 141.359 317.158 137.416 314.645 132.67C312.036 127.743 321.434 118.103 321.535 117.682L322.542 118.816C321.902 121.427 314.584 128.135 316.403 131.564C318.694 135.895 323.519 139.683 323.569 139.722L322.386 141.519Z" fill="#353146"/>
<path d="M342.808 119.015L342.022 117.826C342.183 117.699 358.002 105.134 360.495 101.069L360.575 100.947L360.691 100.864C360.742 100.825 365.783 97.2414 366.604 92.7285C366.755 91.8859 366.744 91.0178 366.57 90.1803C366.397 89.3429 366.065 88.5548 365.597 87.8671L365.481 87.679V87.5463C365.38 87.4025 364.64 86.5895 360.893 86.9435L360.777 85.4779C363.592 85.2124 365.451 85.5166 366.317 86.3849C366.532 86.5886 366.691 86.8551 366.775 87.1536C367.32 87.9945 367.702 88.949 367.897 89.9582C368.093 90.9674 368.099 92.01 367.913 93.0216C367.354 96.08 365.234 98.6628 363.557 100.283C362.172 101.627 360.837 103.049 359.503 104.448C354.441 109.774 343.362 118.579 342.808 119.015Z" fill="#E8F5FF"/>
<path d="M241.689 224.655L240.355 224.681L240.504 233.59L241.838 233.563L241.689 224.655Z" fill="#E8F5FF"/>
<path d="M240.244 226.005C245.626 226.005 249.989 221.214 249.989 215.303C249.989 209.393 245.626 204.602 240.244 204.602C234.862 204.602 230.499 209.393 230.499 215.303C230.499 221.214 234.862 226.005 240.244 226.005Z" fill="#587EEC"/>
<path d="M240.244 224.191C244.714 224.191 248.337 220.212 248.337 215.303C248.337 210.395 244.714 206.416 240.244 206.416C235.774 206.416 232.151 210.395 232.151 215.303C232.151 220.212 235.774 224.191 240.244 224.191Z" fill="#E8F5FF"/>
<path d="M284.14 283.435C283.467 283.436 282.795 283.397 282.126 283.319C272.697 283.928 263.409 280.59 256.134 273.977C246.565 265.128 241.136 250.826 240.018 231.453L242.032 231.314C243.11 250.063 248.287 263.851 257.433 272.29C268.603 282.605 281.894 281.139 282.025 281.139H282.136H282.247C284.441 281.45 286.671 281.214 288.77 280.448C290.87 279.682 292.785 278.406 294.374 276.715C303.535 267.352 306.28 245.55 305.862 234.008C305.358 221.005 309.634 183.795 314.725 176.418C319.182 169.952 321.947 140.811 321.978 140.518L322.053 139.689L322.798 139.545C322.844 139.545 327.195 138.638 327.739 135.065C328.444 130.408 341.085 118.236 342.52 116.858L343.835 118.518C338.612 123.495 330.156 132.499 329.733 135.425C329.119 139.473 325.508 141.022 323.916 141.508C323.413 146.353 320.759 171.324 316.362 177.734C311.86 184.265 307.372 220.137 307.876 233.903C308.309 245.838 305.403 268.447 295.749 278.313C292.64 281.625 288.471 283.464 284.14 283.435Z" fill="#353146"/>
<g opacity="0.1">
<path opacity="0.1" d="M366.095 57.5815C366.921 54.2299 367.918 50.8562 368.613 47.4604C367.782 50.8728 366.78 54.2299 366.095 57.5815Z" fill="black"/>
<path opacity="0.1" d="M357.67 83.9182C356.662 81.4903 357.201 78.6807 357.221 76.015C357.241 73.3492 356.345 70.2299 354.008 69.4833C349.335 68.0509 346.111 77.6244 341.518 75.8933C337.993 74.5715 338.925 68.7035 336.89 65.3132C335.283 62.6254 332.065 61.8732 329.567 60.1919C324.239 56.6025 324.4 50.8618 321.932 45.4307C319.339 39.7342 313.874 41.4155 309.12 44.7781C305.509 47.3332 302.402 50.7567 298.544 52.7975C295.205 54.5617 291.453 55.2033 287.751 55.2973C283.244 55.4135 278.338 54.5341 275.241 50.9392C272.854 48.1739 271.993 44.12 272.486 40.3204C272.401 40.5804 272.325 40.8403 272.25 41.1003C271.041 45.4528 271.746 50.5686 274.571 53.8759C277.669 57.4708 282.574 58.3447 287.081 58.2341C290.788 58.14 294.535 57.4985 297.879 55.7342C301.747 53.6879 304.854 50.27 308.455 47.7149C313.209 44.3522 318.679 42.6709 321.267 48.3675C323.735 53.7985 323.579 59.5393 328.902 63.1287C331.421 64.7878 334.619 65.5621 336.23 68.25C338.245 71.6513 337.353 77.5082 340.859 78.83C345.447 80.5556 348.67 70.9876 353.343 72.4201C355.68 73.1391 356.582 76.2915 356.557 78.9517C356.531 81.6119 356.008 84.427 357.005 86.855C360.878 86.6614 365.667 85.7488 366.79 81.6562C366.945 81.0688 367.016 80.4589 367.002 79.8477C365.365 82.9503 361.155 83.7468 357.67 83.9182Z" fill="black"/>
</g>
<path opacity="0.1" d="M448.69 220.192L454.537 226.984C454.537 226.984 459.216 264.409 461.552 267.91C463.889 271.411 469.409 285.337 464.227 295.796C464.227 295.796 462.555 301.487 463.557 303.87C464.559 306.254 456.043 318.184 456.043 318.184C456.043 318.184 444.847 329.189 442.505 330.843C440.163 332.497 427.804 345.704 423.629 345.886C419.454 346.069 418.09 351.76 418.09 351.76L394.53 352.678C394.53 352.678 381.516 351.931 378.686 353.95C378.686 353.95 380.197 332.115 365.657 317.802L384.201 310.463C384.201 310.463 391.221 307.144 393.392 303.677C394.757 301.551 396.694 299.948 398.932 299.092C398.932 299.092 404.109 295.055 404.275 292.853C404.441 290.652 410.606 287.953 410.606 287.953L407.116 255.24L408.954 200.929C408.954 200.929 414.801 155.423 427.165 157.995C439.529 160.567 448.69 220.192 448.69 220.192Z" fill="black"/>
<path d="M450.704 220.192L456.551 226.984C456.551 226.984 461.23 264.409 463.567 267.91C465.904 271.411 471.423 285.337 466.241 295.796C466.241 295.796 464.574 301.487 465.576 303.87C466.578 306.254 458.057 318.184 458.057 318.184C458.057 318.184 446.862 329.189 444.52 330.843C442.178 332.497 429.819 345.704 425.644 345.886C421.469 346.069 420.104 351.76 420.104 351.76L396.544 352.678C396.544 352.678 383.521 351.931 380.7 353.95C380.7 353.95 382.211 332.115 367.672 317.802L386.215 310.463C386.215 310.463 393.236 307.144 395.406 303.677C396.772 301.551 398.709 299.948 400.946 299.092C400.946 299.092 406.123 295.055 406.289 292.853C406.456 290.652 412.62 287.953 412.62 287.953L409.13 255.24L410.968 200.929C410.968 200.929 416.815 155.423 429.179 157.995C441.543 160.567 450.704 220.192 450.704 220.192Z" fill="#E8F5FF"/>
<path opacity="0.1" d="M428.968 275.056C428.968 275.056 446.177 270.078 450.689 276.162C455.202 282.246 428.968 275.056 428.968 275.056Z" fill="black"/>
<path opacity="0.1" d="M424.959 283.402C430.806 287.898 448.851 288.08 448.851 288.08L424.959 283.402Z" fill="black"/>
<path opacity="0.1" d="M433.813 305.878C434.316 306.06 446.217 320.009 451.213 315.789C456.209 311.569 433.813 305.878 433.813 305.878Z" fill="black"/>
<path opacity="0.1" d="M273.539 188.817C273.539 188.817 277.034 215.242 275.312 226.005C273.589 236.768 279.875 250.102 279.875 250.102L273.539 188.817Z" fill="black"/>
<path d="M196.162 199.563C192.133 203.031 189.192 211.238 187.061 220.259C183.345 235.993 182.131 254.239 182.131 254.239C182.131 254.239 150.05 246.164 152.387 242.497C153.857 240.191 151.883 222.814 150.236 210.215C149.254 202.771 148.378 196.991 148.378 196.991C148.378 196.991 207.191 190.017 196.162 199.563Z" fill="#FFB0B1"/>
<path opacity="0.1" d="M196.162 198.828C192.133 202.301 189.192 210.503 187.061 219.523C180.67 221.654 173.872 221.847 167.389 220.079C160.905 218.312 154.979 214.651 150.236 209.485C149.254 202.035 148.378 196.256 148.378 196.256C148.378 196.256 207.191 189.287 196.162 198.828Z" fill="black"/>
<path d="M213.406 179.061C213.409 188.681 210.314 197.991 204.667 205.345C199.02 212.699 191.186 217.622 182.552 219.243C173.917 220.864 165.039 219.079 157.488 214.202C149.938 209.326 144.201 201.674 141.294 192.599C138.388 183.525 138.498 173.614 141.605 164.62C144.713 155.626 150.618 148.13 158.275 143.457C165.932 138.785 174.847 137.237 183.443 139.089C192.038 140.941 199.76 146.073 205.242 153.576C210.525 160.804 213.404 169.794 213.406 179.061Z" fill="#FFB0B1"/>
<path opacity="0.1" d="M242.656 433.779H232.08L231.189 413.266L230.257 392.034C230.257 392.034 232.659 391.641 236.487 391.055L238.033 390.828H238.159C238.995 395.136 239.821 399.561 240.617 403.98C241.941 411.825 242.631 419.783 242.677 427.761C242.677 428.314 242.677 428.867 242.677 429.387C242.707 430.864 242.677 432.341 242.656 433.779Z" fill="black"/>
<path d="M240.627 433.779H107.992C108.566 432.346 108.949 431.478 108.949 431.478C108.949 431.478 119.56 380.497 124.954 358.927C124.956 358.909 124.956 358.891 124.954 358.872C125.628 355.942 126.442 353.053 127.392 350.217C127.453 350.024 127.533 349.839 127.629 349.664C130.298 344.896 133.642 339.758 128.963 332.419C124.284 325.08 125.941 292.787 125.941 292.787C125.941 292.787 131.622 265.261 137.636 250.583C138.548 248.309 139.843 246.245 141.453 244.499C141.976 243.937 142.535 243.416 143.125 242.94C143.574 242.57 144.041 242.228 144.525 241.917L144.621 241.85C147.147 240.277 149.952 239.321 152.845 239.046C154.9 238.81 156.975 238.873 159.014 239.234C168.765 240.805 176.571 243.432 182.776 246.424C199.592 254.537 204.683 265.411 204.784 265.637L204.824 265.731C205.499 267.462 215.37 292.77 218.926 304.578C219.847 307.653 220.351 309.816 220.15 310.407C219.142 313.339 227.835 350.034 227.835 350.034C227.835 350.034 231.864 367.732 235.893 388.477C236.069 389.34 236.235 390.203 236.397 391.077C237.117 394.843 237.832 398.681 238.522 402.514C239.859 410.413 240.548 418.428 240.582 426.462C240.656 428.965 240.671 431.404 240.627 433.779Z" fill="#EB5569"/>
<path opacity="0.1" d="M152.054 226.425C152.054 226.425 142.904 222.554 143.014 228.427C143.125 234.301 145.245 237.11 144.576 237.968C143.906 238.825 144.908 243.963 144.908 243.963C144.908 243.963 157.272 243.963 162.953 246.772C168.634 249.582 189.574 255.212 192.249 256.927C194.923 258.641 204.839 266.329 204.839 266.329L205.731 251.772C205.731 251.772 195.482 242.475 178.666 237.708C161.85 232.94 152.054 226.425 152.054 226.425Z" fill="black"/>
<path d="M152.054 225.69C152.054 225.69 142.904 221.818 143.014 227.692C143.125 233.565 145.245 236.375 144.576 237.232C143.906 238.089 144.908 243.227 144.908 243.227C144.908 243.227 157.272 243.227 162.953 246.042C168.634 248.857 189.574 254.482 192.249 256.191C194.923 257.9 204.839 265.593 204.839 265.593L205.741 251.081C205.741 251.081 195.492 241.784 178.676 237.016C161.86 232.249 152.054 225.69 152.054 225.69Z" fill="#EB5569"/>
<path opacity="0.1" d="M179.678 260.72C179.678 260.72 197.164 281.51 196.273 287.267C195.381 293.025 179.678 260.72 179.678 260.72Z" fill="black"/>
<path opacity="0.1" d="M151.274 335.821C151.274 335.821 138.457 348.79 134.679 349.526C130.902 350.261 137.575 352.706 141.916 350.753C146.258 348.801 155.514 343.663 155.514 343.663L151.274 335.821Z" fill="black"/>
<path d="M245.834 433.779H215.944C211.764 429.797 207.811 426.108 205.292 423.89C201.263 420.339 198.358 415.113 196.504 410.91C196.086 409.953 195.724 409.057 195.416 408.244C194.866 406.844 194.382 405.413 193.966 403.958L216.1 389.523C217.324 390.665 218.473 391.9 219.54 393.217L219.807 393.555C221.036 395.148 222.119 396.956 222.214 398.438C222.325 400.164 226.697 406.839 231.164 413.249C235.696 419.77 240.34 426.003 240.647 426.423C240.647 426.423 241.412 427.568 242.661 429.327C243.543 430.599 244.631 432.125 245.834 433.779Z" fill="#FFB0B1"/>
<path opacity="0.1" d="M205.242 153.576C204.18 156.209 203.228 158.941 203.087 161.872C202.689 170.334 203.334 189.254 194.802 193.502C190.577 195.592 186.054 191.002 181.421 190.891C178.087 190.814 175.03 193.137 172.995 196.04C170.961 198.944 169.696 202.389 168.221 205.674C166.878 208.656 165.33 211.522 163.593 214.247C163.073 215.081 162.501 215.874 161.88 216.62C156.678 214.209 152.046 210.526 148.336 205.852C144.626 201.177 141.937 195.635 140.473 189.646C139.01 183.657 138.81 177.381 139.89 171.295C140.97 165.209 143.301 159.474 146.704 154.527C150.108 149.579 154.496 145.551 159.532 142.748C164.568 139.945 170.121 138.441 175.767 138.352C181.413 138.262 187.002 139.589 192.11 142.231C197.218 144.873 201.71 148.761 205.242 153.598V153.576Z" fill="black"/>
<path d="M202.417 160.379C202.014 168.84 202.664 187.761 194.127 192.003C189.902 194.093 185.379 189.508 180.746 189.398C177.412 189.315 174.36 191.643 172.32 194.541C170.281 197.439 169.027 200.89 167.546 204.181C166.202 207.163 164.655 210.028 162.918 212.753C161.88 214.368 160.732 215.989 159.135 216.896C156.355 218.489 152.986 217.593 150.005 216.57C146.137 215.231 142.326 213.723 138.572 212.046C138.658 211.423 138.702 210.795 138.703 210.165C138.592 210.397 138.472 210.613 138.351 210.845L138.114 211.299C137.686 212.129 137.268 212.958 136.885 213.81C136.739 214.136 136.598 214.474 136.472 214.811C135.966 216.066 135.648 217.404 135.53 218.771C135.274 222.46 136.931 225.961 138.401 229.279C144.057 242.115 147.552 257.126 143.296 270.593C141.453 276.449 138.26 281.654 135.928 287.312C131.852 297.332 130.652 308.479 132.489 319.267C133.652 325.97 135.984 332.607 135.41 339.404C134.402 351.102 125.216 359.807 116.015 365.791C111.044 369.01 104.96 371.875 99.6824 369.33C103.047 365.017 103.913 359.049 104.638 353.419C106.622 338.062 108.612 322.698 110.606 307.327C111.402 301.21 112.196 295.093 112.988 288.976C114.469 277.484 115.97 265.864 115.043 254.299C114.368 245.777 112.464 236.729 115.829 229.013C117.606 224.926 120.774 221.542 121.761 217.139C122.572 213.561 121.817 209.756 122.351 206.111C122.643 204.453 123.137 202.846 123.821 201.333C124.692 199.28 125.828 197.376 127.195 195.68C125.846 195.249 124.587 194.657 123.821 193.418C125.987 191.87 126.314 188.38 125.332 185.759C124.35 183.137 122.386 181.141 120.618 179.072C118.85 177.004 117.148 174.592 116.927 171.772C116.498 166.401 121.384 162.242 122.245 156.944C123.116 151.552 119.671 146.309 119.948 140.85C120.271 134.252 125.79 129.457 131.24 126.675C139.463 122.495 148.546 120.778 157.569 121.698C164.912 122.461 172.018 124.955 179.341 125.923C183.758 126.476 188.235 126.531 192.621 127.383C197.008 128.235 201.405 130.032 204.492 133.566C212.63 142.885 202.88 150.556 202.417 160.379Z" fill="#575A89"/>
<path opacity="0.1" d="M195.608 410.915C193.039 409.693 188.366 410.423 180.343 407.741C172.32 405.058 170.774 392.935 170.774 392.935V392.896C170.678 392.62 169.933 390.817 164.887 384.501C159.311 377.527 147.26 342.302 147.26 342.302C147.26 342.302 136.573 329.698 136.91 325.052C137.248 320.407 135.012 308.046 135.233 294.219C135.455 280.393 159.291 271.223 159.291 271.223C205.187 262.291 194.379 320.396 193.155 324.798C191.931 329.2 198.282 341.091 198.282 341.091C197.386 346.268 201.958 354.282 201.958 354.282C201.958 354.282 203.066 361.372 203.293 364.065C203.306 364.19 203.331 364.312 203.369 364.43C204.104 366.969 210.097 369.27 212.535 370.669C215.098 372.14 223.342 384.982 223.342 384.982C225.12 394.412 198.166 412.154 195.608 410.915Z" fill="black"/>
<path d="M196.943 408.703C194.379 407.475 189.7 408.211 181.683 405.523C173.665 402.835 172.114 390.723 172.114 390.723V390.684C172.023 390.402 171.273 388.605 166.226 382.289C160.651 375.315 148.6 340.085 148.6 340.085C148.6 340.085 137.913 327.486 138.245 322.84C138.577 318.194 136.351 305.834 136.573 292.018C136.795 278.203 160.616 269.038 160.616 269.038C206.511 260.106 195.704 318.211 194.48 322.613C193.256 327.016 199.607 338.907 199.607 338.907C198.71 344.083 203.283 352.097 203.283 352.097C203.283 352.097 204.391 359.187 204.623 361.881C204.631 362.005 204.655 362.128 204.693 362.246C205.429 364.784 211.422 367.085 213.864 368.484C216.423 369.95 224.672 382.797 224.672 382.797C226.46 392.211 199.506 409.953 196.943 408.703Z" fill="#EB5569"/>
<path opacity="0.1" d="M161.523 299.374C161.523 299.374 181.572 322.602 186.805 322.602C192.037 322.602 161.523 299.374 161.523 299.374Z" fill="black"/>
<path d="M196.942 408.703C194.379 407.475 189.7 408.211 181.683 405.523C173.665 402.835 172.114 390.723 172.114 390.723V390.684C177.427 386.813 190.884 375.879 196.187 371.88C199.919 369.076 202.966 364.956 204.749 362.224C205.484 364.762 211.477 367.063 213.92 368.462C216.478 369.928 224.727 382.775 224.727 382.775C226.46 392.211 199.506 409.953 196.942 408.703Z" fill="#FF748E"/>
<g opacity="0.1">
<path opacity="0.1" d="M123.851 193.479C123.877 193.524 123.912 193.562 123.942 193.607C124.093 193.396 124.249 193.186 124.41 192.987C124.239 193.17 124.052 193.335 123.851 193.479Z" fill="black"/>
<path opacity="0.1" d="M135.535 218.832C135.747 215.762 137.243 213.058 138.643 210.359C137.726 209.972 136.81 209.579 135.903 209.17C135.989 208.549 136.033 207.923 136.034 207.295C134.619 210.06 133.078 212.781 132.861 215.895C132.604 219.589 134.261 223.085 135.732 226.403C141.393 239.234 144.883 254.244 140.627 267.717C138.779 273.568 135.591 278.778 133.259 284.436C129.184 294.455 127.986 305.6 129.824 316.386C130.978 323.095 133.315 329.726 132.74 336.523C131.733 348.22 122.552 356.925 113.346 362.904C109.584 365.349 105.187 367.588 100.982 367.428C100.593 368.116 100.158 368.772 99.6824 369.391C104.965 371.952 111.044 369.071 116.015 365.841C125.226 359.868 134.428 351.185 135.435 339.465C136.009 332.668 133.672 326.037 132.514 319.328C130.675 308.543 131.87 297.399 135.938 287.378C138.255 281.726 141.478 276.51 143.306 270.659C147.562 257.187 144.067 242.176 138.411 229.345C136.946 226.005 135.279 222.526 135.535 218.832Z" fill="black"/>
<path opacity="0.1" d="M204.482 133.633C203.986 133.075 203.454 132.557 202.89 132.084C208.994 140.778 200.181 148.167 199.743 157.525C199.35 165.987 199.994 184.912 191.458 189.149C187.238 191.245 182.71 186.655 178.082 186.544C174.743 186.467 171.691 188.795 169.651 191.693C167.611 194.591 166.357 198.042 164.882 201.327C163.535 204.309 161.987 207.174 160.248 209.9C159.241 211.52 158.063 213.135 156.461 214.048C153.691 215.635 150.322 214.745 147.335 213.716C144.431 212.713 141.554 211.607 138.703 210.398C138.697 210.974 138.654 211.548 138.572 212.118C142.329 213.799 146.142 215.307 150.01 216.642C152.991 217.67 156.36 218.561 159.135 216.973C160.732 216.061 161.89 214.44 162.923 212.82C164.662 210.098 166.209 207.234 167.551 204.253C169.032 200.968 170.281 197.511 172.325 194.613C174.37 191.715 177.417 189.392 180.751 189.47C185.384 189.58 189.912 194.171 194.132 192.075C202.669 187.838 202.019 168.912 202.417 160.451C202.88 150.612 212.63 142.946 204.482 133.633Z" fill="black"/>
</g>
<path opacity="0.1" d="M138.119 211.305C137.691 212.134 137.273 212.964 136.89 213.815C136.744 214.142 136.603 214.479 136.477 214.816C133.838 211.896 127.412 204.955 123.826 202.804C124.698 200.752 125.834 198.848 127.2 197.152C127.2 197.152 135.747 202.113 138.119 211.305Z" fill="black"/>
<path d="M138.356 210.851C136.376 201.012 127.2 195.686 127.2 195.686C125.833 197.382 124.697 199.286 123.826 201.338C127.608 203.612 134.579 211.233 136.89 213.816L138.356 210.851Z" fill="#EB5569"/>
<defs>
<linearGradient id="paint0_linear_4_6" x1="368.094" y1="53.6769" x2="368.094" y2="43.5116" gradientUnits="userSpaceOnUse">
<stop stop-color="#808080" stop-opacity="0.25"/>
<stop offset="0.54" stop-color="#808080" stop-opacity="0.12"/>
<stop offset="1" stop-color="#808080" stop-opacity="0.1"/>
</linearGradient>
<linearGradient id="paint1_linear_4_6" x1="231050" y1="364194" x2="231050" y2="25393.2" gradientUnits="userSpaceOnUse">
<stop stop-color="#808080" stop-opacity="0.25"/>
<stop offset="0.54" stop-color="#808080" stop-opacity="0.12"/>
<stop offset="1" stop-color="#808080" stop-opacity="0.1"/>
</linearGradient>
</defs>
</svg>
