<svg width="88" height="80" viewBox="0 0 88 80" fill="none" xmlns="http://www.w3.org/2000/svg">
<path d="M24.5814 0.697021C18.2049 0.697021 12.0895 3.44301 7.58057 8.33089C3.07165 13.2188 0.538574 19.8482 0.538574 26.7607C0.538574 29.1301 0.932003 31.4995 1.50029 33.8689H19.3357L24.8874 17.899C26.1989 14.108 31.3572 13.7289 33.0183 17.899L42.0672 43.3466L44.6463 36.6175C45.2146 35.0537 46.7446 33.8689 48.6243 33.8689H87.0055C87.5737 31.4995 87.9672 29.1301 87.9672 26.7607C87.9672 19.8482 85.4341 13.2188 80.9252 8.33089C76.4163 3.44301 70.3009 0.697021 63.9243 0.697021C55.7934 0.697021 48.6243 5.10415 44.2529 11.7859C39.8814 5.10415 32.7123 0.697021 24.5814 0.697021ZM4.91 40.9772C3.75063 40.9772 2.63874 41.4765 1.81894 42.3652C0.999134 43.2539 0.538574 44.4592 0.538574 45.7161C0.538574 46.9729 0.999134 48.1782 1.81894 49.0669C2.63874 49.9556 3.75063 50.4549 4.91 50.4549H15.5763L39.8814 76.5186C44.2529 80.7835 44.2529 80.7835 48.6243 76.5186L72.9294 50.4549H83.5957C84.7551 50.4549 85.867 49.9556 86.6868 49.0669C87.5066 48.1782 87.9672 46.9729 87.9672 45.7161C87.9672 44.4592 87.5066 43.2539 86.6868 42.3652C85.867 41.4765 84.7551 40.9772 83.5957 40.9772H50.3729L46.3074 51.8766C44.5589 56.6628 39.5317 55.9994 37.9143 52.0187L28.9529 26.7607L24.7563 37.8022C24.1006 39.603 22.6143 40.9772 20.6472 40.9772H4.91Z" fill="#EC5863"/>
</svg>
