<svg width="65" height="80" viewBox="0 0 65 80" fill="none" xmlns="http://www.w3.org/2000/svg">
<path d="M64.4813 28.4497H43.0528V79.8127H35.9099V56.1067H28.767V79.8127H21.6242V28.4497H0.195618V20.5477H64.4813V28.4497ZM32.3385 0.792725C34.2329 0.792725 36.0497 1.62525 37.3892 3.10717C38.7288 4.58908 39.4813 6.59899 39.4813 8.69473C39.4813 10.7905 38.7288 12.8004 37.3892 14.2823C36.0497 15.7642 34.2329 16.5967 32.3385 16.5967C30.4441 16.5967 28.6273 15.7642 27.2877 14.2823C25.9482 12.8004 25.1956 10.7905 25.1956 8.69473C25.1956 4.30912 28.3742 0.792725 32.3385 0.792725Z" fill="#EC5863"/>
</svg>
