<svg width="141" height="47" viewBox="0 0 141 47" fill="none" xmlns="http://www.w3.org/2000/svg">
<path d="M52.462 26.1415C50.734 26.1415 49.384 25.7215 48.412 24.8815C47.44 24.0295 46.924 22.8235 46.864 21.2635C46.852 20.9155 46.846 20.3635 46.846 19.6075C46.846 18.8515 46.852 18.2995 46.864 17.9515C46.924 16.4275 47.446 15.2515 48.43 14.4235C49.426 13.5955 50.77 13.1815 52.462 13.1815C53.602 13.1815 54.592 13.3675 55.432 13.7395C56.284 14.1115 56.932 14.5855 57.376 15.1615C57.832 15.7375 58.072 16.3315 58.096 16.9435C58.096 17.0515 58.054 17.1415 57.97 17.2135C57.898 17.2855 57.808 17.3215 57.7 17.3215H55.072C54.952 17.3215 54.856 17.3035 54.784 17.2675C54.712 17.2315 54.652 17.1655 54.604 17.0695C54.448 16.7215 54.202 16.4215 53.866 16.1695C53.53 15.9055 53.062 15.7735 52.462 15.7735C51.034 15.7735 50.284 16.5295 50.212 18.0415C50.2 18.3775 50.194 18.8995 50.194 19.6075C50.194 20.3035 50.2 20.8255 50.212 21.1735C50.284 22.7575 51.052 23.5495 52.516 23.5495C53.224 23.5495 53.788 23.3695 54.208 23.0095C54.64 22.6375 54.856 22.0735 54.856 21.3175V20.9755H53.164C53.032 20.9755 52.924 20.9335 52.84 20.8495C52.756 20.7535 52.714 20.6395 52.714 20.5075V19.1755C52.714 19.0435 52.756 18.9355 52.84 18.8515C52.924 18.7555 53.032 18.7075 53.164 18.7075H57.7C57.832 18.7075 57.94 18.7555 58.024 18.8515C58.108 18.9355 58.15 19.0435 58.15 19.1755V21.2275C58.15 22.2475 57.916 23.1295 57.448 23.8735C56.98 24.6055 56.314 25.1695 55.45 25.5655C54.598 25.9495 53.602 26.1415 52.462 26.1415ZM64.4451 26.1415C62.9571 26.1415 61.8111 25.7875 61.0071 25.0795C60.2031 24.3715 59.7651 23.3755 59.6931 22.0915C59.6811 21.9355 59.6751 21.6655 59.6751 21.2815C59.6751 20.8975 59.6811 20.6275 59.6931 20.4715C59.7651 19.1995 60.2151 18.2095 61.0431 17.5015C61.8711 16.7815 63.0051 16.4215 64.4451 16.4215C65.8971 16.4215 67.0371 16.7815 67.8651 17.5015C68.6931 18.2095 69.1431 19.1995 69.2151 20.4715C69.2271 20.6275 69.2331 20.8975 69.2331 21.2815C69.2331 21.6655 69.2271 21.9355 69.2151 22.0915C69.1431 23.3755 68.7051 24.3715 67.9011 25.0795C67.0971 25.7875 65.9451 26.1415 64.4451 26.1415ZM64.4451 23.9455C64.9731 23.9455 65.3631 23.7895 65.6151 23.4775C65.8671 23.1535 66.0111 22.6615 66.0471 22.0015C66.0591 21.8815 66.0651 21.6415 66.0651 21.2815C66.0651 20.9215 66.0591 20.6815 66.0471 20.5615C66.0111 19.9135 65.8611 19.4275 65.5971 19.1035C65.3451 18.7795 64.9611 18.6175 64.4451 18.6175C63.4491 18.6175 62.9211 19.2655 62.8611 20.5615L62.8431 21.2815L62.8611 22.0015C62.8851 22.6615 63.0231 23.1535 63.2751 23.4775C63.5391 23.7895 63.9291 23.9455 64.4451 23.9455Z" fill="black"/>
<path d="M76.385 26.1415C74.669 26.1415 73.325 25.7275 72.353 24.8995C71.393 24.0595 70.883 22.8475 70.823 21.2635C70.811 20.9395 70.805 20.4115 70.805 19.6795C70.805 18.9355 70.811 18.3955 70.823 18.0595C70.883 16.4995 71.405 15.2995 72.389 14.4595C73.373 13.6075 74.705 13.1815 76.385 13.1815C77.441 13.1815 78.389 13.3615 79.229 13.7215C80.069 14.0695 80.729 14.5735 81.209 15.2335C81.701 15.8815 81.953 16.6435 81.965 17.5195V17.5555C81.965 17.6515 81.923 17.7355 81.839 17.8075C81.767 17.8675 81.683 17.8975 81.587 17.8975H79.157C79.001 17.8975 78.881 17.8675 78.797 17.8075C78.713 17.7355 78.641 17.6095 78.581 17.4295C78.413 16.8175 78.149 16.3915 77.789 16.1515C77.429 15.8995 76.955 15.7735 76.367 15.7735C74.951 15.7735 74.219 16.5655 74.171 18.1495C74.159 18.4735 74.153 18.9715 74.153 19.6435C74.153 20.3155 74.159 20.8255 74.171 21.1735C74.219 22.7575 74.951 23.5495 76.367 23.5495C76.955 23.5495 77.435 23.4235 77.807 23.1715C78.179 22.9075 78.437 22.4815 78.581 21.8935C78.629 21.7135 78.695 21.5935 78.779 21.5335C78.863 21.4615 78.989 21.4255 79.157 21.4255H81.587C81.695 21.4255 81.785 21.4615 81.857 21.5335C81.941 21.6055 81.977 21.6955 81.965 21.8035C81.953 22.6795 81.701 23.4475 81.209 24.1075C80.729 24.7555 80.069 25.2595 79.229 25.6195C78.389 25.9675 77.441 26.1415 76.385 26.1415ZM88.0877 26.1415C86.5997 26.1415 85.4537 25.7875 84.6497 25.0795C83.8457 24.3715 83.4077 23.3755 83.3357 22.0915C83.3237 21.9355 83.3177 21.6655 83.3177 21.2815C83.3177 20.8975 83.3237 20.6275 83.3357 20.4715C83.4077 19.1995 83.8577 18.2095 84.6857 17.5015C85.5137 16.7815 86.6477 16.4215 88.0877 16.4215C89.5397 16.4215 90.6797 16.7815 91.5077 17.5015C92.3357 18.2095 92.7857 19.1995 92.8577 20.4715C92.8697 20.6275 92.8757 20.8975 92.8757 21.2815C92.8757 21.6655 92.8697 21.9355 92.8577 22.0915C92.7857 23.3755 92.3477 24.3715 91.5437 25.0795C90.7397 25.7875 89.5877 26.1415 88.0877 26.1415ZM88.0877 23.9455C88.6157 23.9455 89.0057 23.7895 89.2577 23.4775C89.5097 23.1535 89.6537 22.6615 89.6897 22.0015C89.7017 21.8815 89.7077 21.6415 89.7077 21.2815C89.7077 20.9215 89.7017 20.6815 89.6897 20.5615C89.6537 19.9135 89.5037 19.4275 89.2397 19.1035C88.9877 18.7795 88.6037 18.6175 88.0877 18.6175C87.0917 18.6175 86.5637 19.2655 86.5037 20.5615L86.4857 21.2815L86.5037 22.0015C86.5277 22.6615 86.6657 23.1535 86.9177 23.4775C87.1817 23.7895 87.5717 23.9455 88.0877 23.9455ZM95.1136 25.9615C94.9816 25.9615 94.8736 25.9195 94.7896 25.8355C94.7056 25.7515 94.6636 25.6435 94.6636 25.5115V17.0515C94.6636 16.9195 94.7056 16.8115 94.7896 16.7275C94.8736 16.6435 94.9816 16.6015 95.1136 16.6015H97.1836C97.3156 16.6015 97.4236 16.6495 97.5076 16.7455C97.6036 16.8295 97.6516 16.9315 97.6516 17.0515V17.7715C98.3116 16.9915 99.1996 16.6015 100.316 16.6015H101.108C101.24 16.6015 101.348 16.6435 101.432 16.7275C101.516 16.8115 101.558 16.9195 101.558 17.0515V18.9055C101.558 19.0255 101.516 19.1335 101.432 19.2295C101.348 19.3135 101.24 19.3555 101.108 19.3555H99.3616C98.8696 19.3555 98.4856 19.4935 98.2096 19.7695C97.9456 20.0335 97.8136 20.4115 97.8136 20.9035V25.5115C97.8136 25.6435 97.7656 25.7515 97.6696 25.8355C97.5856 25.9195 97.4776 25.9615 97.3456 25.9615H95.1136ZM107.178 26.1415C105.69 26.1415 104.544 25.7875 103.74 25.0795C102.936 24.3715 102.498 23.3755 102.426 22.0915C102.414 21.9355 102.408 21.6655 102.408 21.2815C102.408 20.8975 102.414 20.6275 102.426 20.4715C102.498 19.1995 102.948 18.2095 103.776 17.5015C104.604 16.7815 105.738 16.4215 107.178 16.4215C108.63 16.4215 109.77 16.7815 110.598 17.5015C111.426 18.2095 111.876 19.1995 111.948 20.4715C111.96 20.6275 111.966 20.8975 111.966 21.2815C111.966 21.6655 111.96 21.9355 111.948 22.0915C111.876 23.3755 111.438 24.3715 110.634 25.0795C109.83 25.7875 108.678 26.1415 107.178 26.1415ZM107.178 23.9455C107.706 23.9455 108.096 23.7895 108.348 23.4775C108.6 23.1535 108.744 22.6615 108.78 22.0015C108.792 21.8815 108.798 21.6415 108.798 21.2815C108.798 20.9215 108.792 20.6815 108.78 20.5615C108.744 19.9135 108.594 19.4275 108.33 19.1035C108.078 18.7795 107.694 18.6175 107.178 18.6175C106.182 18.6175 105.654 19.2655 105.594 20.5615L105.576 21.2815L105.594 22.0015C105.618 22.6615 105.756 23.1535 106.008 23.4775C106.272 23.7895 106.662 23.9455 107.178 23.9455ZM114.203 25.9615C114.071 25.9615 113.963 25.9195 113.879 25.8355C113.795 25.7515 113.753 25.6435 113.753 25.5115V17.0515C113.753 16.9195 113.795 16.8115 113.879 16.7275C113.963 16.6435 114.071 16.6015 114.203 16.6015H116.273C116.405 16.6015 116.513 16.6435 116.597 16.7275C116.693 16.8115 116.741 16.9195 116.741 17.0515V17.7355C117.065 17.3395 117.479 17.0215 117.983 16.7815C118.499 16.5415 119.081 16.4215 119.729 16.4215C120.785 16.4215 121.643 16.7815 122.303 17.5015C122.963 18.2095 123.293 19.2055 123.293 20.4895V25.5115C123.293 25.6315 123.251 25.7395 123.167 25.8355C123.083 25.9195 122.975 25.9615 122.843 25.9615H120.575C120.455 25.9615 120.347 25.9195 120.251 25.8355C120.167 25.7395 120.125 25.6315 120.125 25.5115V20.5975C120.125 20.0335 119.987 19.6015 119.711 19.3015C119.435 18.9895 119.039 18.8335 118.523 18.8335C118.019 18.8335 117.623 18.9895 117.335 19.3015C117.047 19.6015 116.903 20.0335 116.903 20.5975V25.5115C116.903 25.6315 116.861 25.7395 116.777 25.8355C116.693 25.9195 116.585 25.9615 116.453 25.9615H114.203ZM128.128 26.1415C127.492 26.1415 126.91 26.0215 126.382 25.7815C125.866 25.5295 125.458 25.1935 125.158 24.7735C124.87 24.3415 124.726 23.8675 124.726 23.3515C124.726 22.5235 125.062 21.8575 125.734 21.3535C126.418 20.8495 127.354 20.5015 128.542 20.3095L130.792 19.9675V19.7155C130.792 19.2595 130.696 18.9235 130.504 18.7075C130.312 18.4915 129.988 18.3835 129.532 18.3835C129.256 18.3835 129.028 18.4315 128.848 18.5275C128.668 18.6235 128.482 18.7555 128.29 18.9235C128.122 19.0675 127.996 19.1635 127.912 19.2115C127.876 19.3075 127.81 19.3555 127.714 19.3555H125.752C125.632 19.3555 125.53 19.3195 125.446 19.2475C125.374 19.1635 125.344 19.0675 125.356 18.9595C125.368 18.6355 125.524 18.2755 125.824 17.8795C126.136 17.4835 126.604 17.1415 127.228 16.8535C127.864 16.5655 128.644 16.4215 129.568 16.4215C131.044 16.4215 132.136 16.7515 132.844 17.4115C133.552 18.0595 133.906 18.9355 133.906 20.0395V25.5115C133.906 25.6315 133.864 25.7395 133.78 25.8355C133.696 25.9195 133.588 25.9615 133.456 25.9615H131.368C131.248 25.9615 131.14 25.9195 131.044 25.8355C130.96 25.7395 130.918 25.6315 130.918 25.5115V24.8815C130.654 25.2535 130.282 25.5595 129.802 25.7995C129.334 26.0275 128.776 26.1415 128.128 26.1415ZM128.974 24.0895C129.526 24.0895 129.97 23.9095 130.306 23.5495C130.654 23.1895 130.828 22.6615 130.828 21.9655V21.7135L129.298 21.9835C128.218 22.1755 127.678 22.5535 127.678 23.1175C127.678 23.4175 127.804 23.6575 128.056 23.8375C128.308 24.0055 128.614 24.0895 128.974 24.0895Z" fill="#EC5863"/>
<path d="M15.6153 9.64678C17.0851 9.05298 18.6593 9.71412 19.1307 11.1228C19.4915 12.2013 19.1007 13.4045 18.2394 14.1762L18.6516 15.4596L19.3447 16.3074C19.5029 16.5014 19.7494 16.5874 20.0004 16.5453C20.6773 16.4314 21.3474 16.4018 22.0012 16.4486C22.2228 16.4648 22.4464 16.3787 22.6111 16.2091L23.1477 15.6585L23.5678 14.4676C23.2564 14.0088 23.1656 13.3886 23.3775 12.7875C23.7372 11.7686 24.8254 11.2065 25.7657 11.5811C26.5758 11.9033 26.9925 12.8481 26.724 13.7531C26.5534 14.3295 26.1534 14.7719 25.671 15.002L25.2058 16.3217L25.2801 17.0358C25.3056 17.2813 25.438 17.4914 25.6372 17.6127C26.3067 18.0227 26.9175 18.532 27.4491 19.1277C27.6277 19.3283 27.9011 19.4065 28.1683 19.3397L29.5437 18.997L31.1156 18.0344C31.1486 17.2344 31.5786 16.4453 32.3058 15.9999C33.4052 15.327 34.7593 15.697 35.2985 16.8299C35.7852 17.8519 35.4181 19.175 34.4573 19.8537C33.7071 20.3828 32.8113 20.3997 32.1328 19.9997L30.5516 20.9674L29.6541 21.9719C29.4132 22.2413 29.3187 22.6128 29.3968 22.954C29.3972 22.956 29.3975 22.9573 29.398 22.9594C29.5313 23.5474 29.6048 24.1408 29.6244 24.731C29.6355 25.0827 29.815 25.3924 30.1063 25.5493L31.2179 26.1475L33.447 26.5051C33.8538 26.1268 34.404 25.9299 34.9572 26.0181C35.9489 26.1775 36.5588 27.1928 36.2703 28.2504C36.0223 29.1561 35.1647 29.7862 34.2911 29.7032C33.6953 29.6465 33.2242 29.2867 32.9807 28.7876L30.7372 28.4281L29.339 28.6613C29.0813 28.7049 28.8519 28.8828 28.7394 29.1347C28.2922 30.1288 27.6891 31.0506 26.955 31.8547C26.7726 32.0545 26.6977 32.3333 26.7537 32.5893L27.0557 33.9833L27.8659 35.3572C28.8104 35.1721 29.775 35.5606 30.2895 36.4333C30.9812 37.6057 30.6006 39.209 29.4412 40.0285C28.2824 40.8478 26.7492 40.5713 26.0427 39.4144C25.5481 38.6046 25.5744 37.5805 26.0219 36.7512L25.1617 35.293L24.0767 34.3729C23.916 34.2359 23.6922 34.2067 23.4883 34.2902C23.262 34.3828 23.0316 34.4667 22.7963 34.5414C21.5178 34.947 20.2386 35.0431 19.03 34.8732C18.8528 34.8487 18.669 34.9092 18.5288 35.0387L17.9132 35.6086L17.432 36.7777C17.7178 37.2562 17.775 37.8828 17.5325 38.4727C17.1204 39.4736 16.0084 39.9734 15.0932 39.5433C14.3052 39.173 13.9407 38.2016 14.2556 37.31C14.4561 36.7421 14.8766 36.322 15.3688 36.1197L15.9018 34.8239L15.8454 33.7065C14.9745 33.1564 14.2068 32.4368 13.5875 31.575L12.0618 31.7925L10.6153 32.5878C10.5932 33.5904 10.0719 34.5641 9.19501 35.0598C7.95595 35.7598 6.47711 35.2413 5.89234 33.901C5.30773 32.5614 5.83741 30.9079 7.07647 30.2079C8.00371 29.6839 9.06461 29.8423 9.78508 30.5171L11.1493 29.7666L12.1138 28.6805C12.1768 28.6093 12.2024 28.5119 12.1821 28.4225L12.1818 28.4211C11.804 26.7544 11.9012 25.0508 12.3822 23.4697C12.408 23.3829 12.3935 23.291 12.3407 23.2249L11.5686 22.2481L9.86688 21.3615C9.38303 21.6008 8.81763 21.6224 8.32897 21.3675C7.44619 20.907 7.15976 19.7299 7.72414 18.7858C8.21958 17.9579 9.23046 17.6113 10.0305 17.9943C10.5484 18.2421 10.8722 18.7308 10.9551 19.2823L12.6568 20.1688L13.8855 20.2422C13.9708 20.2476 14.0554 20.2064 14.1119 20.1344C14.6936 19.3872 15.3791 18.7209 16.1515 18.1661C16.3635 18.0132 16.4999 17.7682 16.5114 17.5066L16.5609 16.3311L16.1213 14.9635C15.0764 14.9254 14.1499 14.2965 13.8069 13.2721C13.3356 11.8634 14.1453 10.2399 15.6153 9.64678Z" fill="#EC5863"/>
<path d="M27.1653 23.6776C26.345 20.0594 22.8275 18.0312 19.3085 19.1476C15.7896 20.2639 13.6018 24.102 14.4221 27.7202C15.2423 31.3384 18.7599 33.3666 22.2788 32.2503C25.7977 31.134 27.9855 27.2959 27.1653 23.6776Z" fill="#F58A97"/>
<path d="M21.918 30.3507C18.785 31.3083 15.6205 29.6803 14.418 26.6596C14.4474 27.0015 14.5015 27.3442 14.5817 27.6854C15.4368 31.3229 18.9325 33.4149 22.3899 32.3582C25.8472 31.3014 27.9567 27.4962 27.1017 23.8587C27.0215 23.5174 26.918 23.1898 26.7935 22.877C27.0771 26.1785 25.0509 29.3931 21.918 30.3507Z" fill="#F07281"/>
<path d="M12.3664 40.3193C12.1292 39.2844 11.1279 38.6992 10.13 39.0122C9.13202 39.3253 8.51529 40.4181 8.75248 41.453C8.98966 42.488 9.99094 43.0732 10.9889 42.7601C11.9869 42.4471 12.6036 41.3543 12.3664 40.3193Z" fill="#EB5569"/>
<path d="M35.1386 34.2363C34.9819 33.5527 34.3205 33.1662 33.6614 33.373C33.0022 33.5797 32.5949 34.3015 32.7515 34.9851C32.9082 35.6687 33.5695 36.0553 34.2287 35.8485C34.8879 35.6417 35.2952 34.9199 35.1386 34.2363Z" fill="#EB5569"/>
<path d="M31.8841 10.1462C31.6533 9.13928 30.6792 8.56993 29.7083 8.8745C28.7374 9.17907 28.1374 10.2422 28.3682 11.2491C28.5989 12.256 29.573 12.8254 30.5439 12.5208C31.5149 12.2162 32.1149 11.1531 31.8841 10.1462Z" fill="#EB5569"/>
<path d="M21.2339 27.7595C21.0188 26.8207 20.1106 26.2899 19.2054 26.5739C18.3002 26.8578 17.7409 27.849 17.956 28.7878C18.1711 29.7265 19.0793 30.2573 19.9845 29.9733C20.8897 29.6894 21.449 28.6982 21.2339 27.7595Z" fill="#EB5569"/>
<path d="M25.3374 25.067C25.1909 24.4278 24.5726 24.0663 23.9563 24.2596C23.3401 24.453 22.9592 25.1279 23.1057 25.7671C23.2522 26.4063 23.8705 26.7677 24.4868 26.5744C25.1031 26.3811 25.4839 25.7062 25.3374 25.067Z" fill="#EB5569"/>
<path d="M20.9802 22.344C20.8571 21.8072 20.3379 21.5037 19.8204 21.6661C19.3029 21.8284 18.9831 22.3951 19.1061 22.9319C19.2292 23.4686 19.7484 23.7721 20.2659 23.6098C20.7834 23.4475 21.1032 22.8808 20.9802 22.344Z" fill="#EB5569"/>
</svg>
